<?xml version="1.0" standalone="no"?>
<!DOCTYPE svg PUBLIC "-//W3C//DTD SVG 20010904//EN"
 "http://www.w3.org/TR/2001/REC-SVG-20010904/DTD/svg10.dtd">
<svg version="1.0" xmlns="http://www.w3.org/2000/svg"
 width="512.000000pt" height="512.000000pt" viewBox="0 0 512.000000 512.000000"
 preserveAspectRatio="xMidYMid meet">
<metadata>
Created by potrace 1.14, written by Peter Selinger 2001-2017
</metadata>
<g transform="translate(0.000000,512.000000) scale(0.100000,-0.100000)"
fill="#000000" stroke="none">
<path d="M0 2560 l0 -2560 2560 0 2560 0 0 2560 0 2560 -2560 0 -2560 0 0
-2560z m1590 1376 c0 -5 84 -594 130 -916 22 -151 43 -286 47 -300 5 -20 161
1133 163 1203 0 16 29 17 465 17 l465 0 0 -1365 0 -1365 -310 0 -310 0 -1 638
c-1 350 -5 747 -8 881 l-6 243 -114 -858 c-62 -473 -116 -869 -118 -881 -5
-23 -5 -23 -223 -23 l-218 0 -6 33 c-3 17 -57 397 -121 842 -63 446 -119 824
-124 840 -5 18 -9 -317 -10 -842 l-1 -873 -310 0 -310 0 0 1365 0 1365 460 0
c253 0 460 -2 460 -4z m2540 -6 c312 -38 463 -153 518 -393 25 -111 25 -782
-1 -881 -35 -139 -95 -212 -221 -272 -98 -47 -190 -63 -398 -71 l-178 -6 0
-549 0 -548 -355 0 -355 0 0 1365 0 1365 453 0 c251 0 490 -5 537 -10z"/>
<path d="M3856 3473 c-3 -4 -6 -161 -6 -351 l0 -345 66 6 c77 6 110 25 139 83
18 36 20 59 20 264 0 205 -2 229 -20 265 -13 26 -33 46 -55 56 -37 18 -134 32
-144 22z"/>
</g>
</svg>
